<?xml version="1.0" encoding="UTF-8"?>
<!DOCTYPE svg PUBLIC "-//W3C//DTD SVG 1.1//EN" "http://www.w3.org/Graphics/SVG/1.1/DTD/svg11.dtd">
<svg version="1.1" xmlns="http://www.w3.org/2000/svg" xmlns:xlink="http://www.w3.org/1999/xlink" x="0px" y="0px" width="195px" height="183px" viewBox="0 0 195 183" enable-background="new 0 0 195 183" xml:space="preserve">
<!-- Logo 05/2012 -->
<title>LogoLIP6</title>
<style type="text/css">
  <![CDATA[
*{
	fill:#667f9e;
}
]]>
</style>
<g id="LIP6">
<!-- Lettre L -->
	<polygon points="0,47.388 40.756,47.388 40.756,148.138 94.006,148.138 94.006,183 0,183  "/>
<!-- Lettre I -->
	<rect x="52" y="48" width="42" height="89"/>
<!-- Lettre P -->
	<path d="M144.505,47.388h-40v134.668h40v-37.168c0,0,50.5,5,50.5-46S144.505,47.388,144.505,47.388z    M132.758,83.041c0.18-1.98,0.26-3.854,1.564-5.622c1.304-1.768,3.086-3.093,5.342-3.977c2.258-0.883,4.861-1.325,7.814-1.325   c3.637,0,6.619,0.559,8.951,1.675c2.332,1.116,4,2.688,5.006,4.718c1.006,2.03,1.51,8.046,1.51,11.13H149.09   c0-2.31-0.027-5.526-0.08-6.13c-0.055-0.603-0.312-1.108-0.779-1.518c-0.465-0.408-0.596-0.613-1.395-0.613   c-0.67,0-0.805,0.193-1.236,0.579c-0.432,0.387-0.682,0.885-0.746,1.494c-0.062,0.609-0.098,1.836-0.098,3.685v8.879   c0.663-1.312,1.638-2.296,2.923-2.953c1.285-0.656,2.871-0.984,4.756-0.984c2.379,0,4.479,0.61,6.299,1.83   c1.82,1.22,2.979,2.684,3.471,4.391c0.492,1.708,0.74,4.016,0.74,6.922v1.22c0,3.456-0.141,6.027-0.418,7.715   c-0.277,1.688-1.021,3.248-2.23,4.681c-1.209,1.434-2.865,2.546-4.973,3.339c-2.109,0.793-4.562,1.189-7.365,1.189   c-3.486,0-6.342-0.457-8.566-1.371s-3.941-2.229-5.15-3.945c-1.209-1.716-1.248-3.52-1.451-5.408"/>
<!-- interieur 6 -->
	<path d="M144.755,108.921c0,2.186,0.199,3.616,0.6,4.29c0.4,0.674,0.605,1.011,1.535,1.011   c0.562,0,0.972,0.166,1.638-0.834c0.583-0.583,0.5-2.838,0.561-4.083v-2.832c0-1.756-0.207-2.961-0.617-3.615   c-0.41-0.653-0.621-0.979-1.549-0.979c-0.908,0-1.115,0.312-1.535,0.935c-0.422,0.623-0.633,1.844-0.633,3.661V108.921   L144.755,108.921z"/>

	<circle stroke-width="1" cx="72" cy="23" r="21"/>
</g>
</svg>